<mxfile host="app.diagrams.net" modified="2021-11-05T08:43:21.360Z" agent="5.0 (Windows NT 10.0; Win64; x64) AppleWebKit/537.36 (KHTML, like Gecko) Chrome/93.0.4577.63 Safari/537.36" etag="MQDXar_EG5Yh7I1el4TH" version="15.6.8" type="github" pages="2">
  <diagram id="G6-GEJdxTajni8bYdQ5X" name="Page-1">
    <mxGraphModel dx="1422" dy="774" grid="1" gridSize="10" guides="1" tooltips="1" connect="1" arrows="1" fold="1" page="1" pageScale="1" pageWidth="1169" pageHeight="827" background="#F1FAEE" math="0" shadow="0">
      <root>
        <mxCell id="0" />
        <mxCell id="1" parent="0" />
        <mxCell id="-TYBonca-6Soey4SpJ7R-21" value="zone1" style="rounded=0;whiteSpace=wrap;html=1;sketch=0;fontSize=16;strokeColor=#000000;fillColor=#cce5ff;dashed=1;align=left;" vertex="1" parent="1">
          <mxGeometry x="510" y="420" width="290" height="140" as="geometry" />
        </mxCell>
        <mxCell id="H3pQz2BiMfsaK5SPxWY5-1" value="" style="endArrow=none;html=1;rounded=0;labelBackgroundColor=#F1FAEE;strokeColor=#999999;fontColor=#1D3557;dashed=1;strokeWidth=2;startArrow=none;entryX=0.052;entryY=0.049;entryDx=0;entryDy=0;entryPerimeter=0;" parent="1" edge="1" target="-TYBonca-6Soey4SpJ7R-9">
          <mxGeometry width="50" height="50" relative="1" as="geometry">
            <mxPoint x="470" y="590" as="sourcePoint" />
            <mxPoint x="470" y="140" as="targetPoint" />
          </mxGeometry>
        </mxCell>
        <mxCell id="H3pQz2BiMfsaK5SPxWY5-2" value="tgw(tencent gateway)" style="rounded=0;whiteSpace=wrap;html=1;fillColor=#A8DADC;strokeColor=#000000;fontColor=#1D3557;" parent="1" vertex="1">
          <mxGeometry x="493" y="149" width="587" height="30" as="geometry" />
        </mxCell>
        <mxCell id="H3pQz2BiMfsaK5SPxWY5-3" value="tconnd 1" style="rounded=0;whiteSpace=wrap;html=1;fillColor=#fad7ac;strokeColor=#000000;" parent="1" vertex="1">
          <mxGeometry x="600" y="240" width="110" height="40" as="geometry" />
        </mxCell>
        <mxCell id="H3pQz2BiMfsaK5SPxWY5-4" value="tconnd 2" style="rounded=0;whiteSpace=wrap;html=1;fillColor=#fad7ac;strokeColor=#000000;" parent="1" vertex="1">
          <mxGeometry x="735" y="240" width="110" height="40" as="geometry" />
        </mxCell>
        <mxCell id="H3pQz2BiMfsaK5SPxWY5-5" value="tconnd N" style="rounded=0;whiteSpace=wrap;html=1;fillColor=#fad7ac;strokeColor=#000000;" parent="1" vertex="1">
          <mxGeometry x="870" y="240" width="110" height="40" as="geometry" />
        </mxCell>
        <mxCell id="H3pQz2BiMfsaK5SPxWY5-7" value="cluster agent 2" style="rounded=0;whiteSpace=wrap;html=1;fillColor=#fad7ac;strokeColor=#000000;" parent="1" vertex="1">
          <mxGeometry x="660" y="320" width="110" height="40" as="geometry" />
        </mxCell>
        <mxCell id="H3pQz2BiMfsaK5SPxWY5-8" value="cluster agent 3" style="rounded=0;whiteSpace=wrap;html=1;fillColor=#fad7ac;strokeColor=#000000;" parent="1" vertex="1">
          <mxGeometry x="800" y="320" width="110" height="40" as="geometry" />
        </mxCell>
        <mxCell id="H3pQz2BiMfsaK5SPxWY5-9" value="session" style="rounded=0;whiteSpace=wrap;html=1;fillColor=#A8DADC;strokeColor=#000000;fontColor=#1D3557;" parent="1" vertex="1">
          <mxGeometry x="595" y="440" width="110" height="40" as="geometry" />
        </mxCell>
        <mxCell id="H3pQz2BiMfsaK5SPxWY5-14" value="" style="endArrow=none;html=1;rounded=0;exitX=0.25;exitY=0;exitDx=0;exitDy=0;labelBackgroundColor=#F1FAEE;strokeColor=#000000;fontColor=#1D3557;" parent="1" source="H3pQz2BiMfsaK5SPxWY5-7" edge="1">
          <mxGeometry width="50" height="50" relative="1" as="geometry">
            <mxPoint x="730" y="350" as="sourcePoint" />
            <mxPoint x="655" y="280" as="targetPoint" />
          </mxGeometry>
        </mxCell>
        <mxCell id="H3pQz2BiMfsaK5SPxWY5-15" value="" style="endArrow=none;html=1;rounded=0;exitX=0.5;exitY=0;exitDx=0;exitDy=0;labelBackgroundColor=#F1FAEE;strokeColor=#000000;fontColor=#1D3557;" parent="1" source="H3pQz2BiMfsaK5SPxWY5-7" edge="1">
          <mxGeometry width="50" height="50" relative="1" as="geometry">
            <mxPoint x="697.5" y="320" as="sourcePoint" />
            <mxPoint x="790" y="280" as="targetPoint" />
          </mxGeometry>
        </mxCell>
        <mxCell id="H3pQz2BiMfsaK5SPxWY5-17" value="" style="endArrow=none;html=1;rounded=0;entryX=0.5;entryY=1;entryDx=0;entryDy=0;exitX=0.75;exitY=0;exitDx=0;exitDy=0;labelBackgroundColor=#F1FAEE;strokeColor=#000000;fontColor=#1D3557;" parent="1" source="H3pQz2BiMfsaK5SPxWY5-7" target="H3pQz2BiMfsaK5SPxWY5-5" edge="1">
          <mxGeometry width="50" height="50" relative="1" as="geometry">
            <mxPoint x="770" y="310" as="sourcePoint" />
            <mxPoint x="845" y="280" as="targetPoint" />
          </mxGeometry>
        </mxCell>
        <mxCell id="H3pQz2BiMfsaK5SPxWY5-18" value="" style="endArrow=none;html=1;rounded=0;entryX=0.5;entryY=1;entryDx=0;entryDy=0;exitX=0.25;exitY=0;exitDx=0;exitDy=0;labelBackgroundColor=#F1FAEE;strokeColor=#000000;fontColor=#1D3557;" parent="1" source="H3pQz2BiMfsaK5SPxWY5-8" target="H3pQz2BiMfsaK5SPxWY5-3" edge="1">
          <mxGeometry width="50" height="50" relative="1" as="geometry">
            <mxPoint x="697.5" y="337" as="sourcePoint" />
            <mxPoint x="665" y="290" as="targetPoint" />
          </mxGeometry>
        </mxCell>
        <mxCell id="H3pQz2BiMfsaK5SPxWY5-19" value="" style="endArrow=none;html=1;rounded=0;exitX=0.5;exitY=0;exitDx=0;exitDy=0;labelBackgroundColor=#F1FAEE;strokeColor=#000000;fontColor=#1D3557;" parent="1" source="H3pQz2BiMfsaK5SPxWY5-8" edge="1">
          <mxGeometry width="50" height="50" relative="1" as="geometry">
            <mxPoint x="837.5" y="337" as="sourcePoint" />
            <mxPoint x="790" y="280" as="targetPoint" />
          </mxGeometry>
        </mxCell>
        <mxCell id="H3pQz2BiMfsaK5SPxWY5-20" value="" style="endArrow=none;html=1;rounded=0;exitX=0.75;exitY=0;exitDx=0;exitDy=0;entryX=0.5;entryY=1;entryDx=0;entryDy=0;labelBackgroundColor=#F1FAEE;strokeColor=#000000;fontColor=#1D3557;" parent="1" source="H3pQz2BiMfsaK5SPxWY5-8" target="H3pQz2BiMfsaK5SPxWY5-5" edge="1">
          <mxGeometry width="50" height="50" relative="1" as="geometry">
            <mxPoint x="865" y="337" as="sourcePoint" />
            <mxPoint x="800" y="290" as="targetPoint" />
          </mxGeometry>
        </mxCell>
        <mxCell id="H3pQz2BiMfsaK5SPxWY5-21" value="world&amp;nbsp;" style="rounded=0;whiteSpace=wrap;html=1;fillColor=#A8DADC;strokeColor=#000000;fontColor=#1D3557;" parent="1" vertex="1">
          <mxGeometry x="615" y="506" width="70" height="40" as="geometry" />
        </mxCell>
        <mxCell id="H3pQz2BiMfsaK5SPxWY5-22" value="actor" style="rounded=0;whiteSpace=wrap;html=1;fillColor=#A8DADC;strokeColor=#000000;fontColor=#1D3557;" parent="1" vertex="1">
          <mxGeometry x="525" y="506" width="70" height="40" as="geometry" />
        </mxCell>
        <mxCell id="H3pQz2BiMfsaK5SPxWY5-23" value="battle record" style="rounded=0;whiteSpace=wrap;html=1;fillColor=#A8DADC;strokeColor=#000000;fontColor=#1D3557;" parent="1" vertex="1">
          <mxGeometry x="705" y="506" width="80" height="40" as="geometry" />
        </mxCell>
        <mxCell id="-TYBonca-6Soey4SpJ7R-1" value="DB shard1" style="shape=cylinder3;whiteSpace=wrap;html=1;boundedLbl=1;backgroundOutline=1;size=15;rounded=0;sketch=0;fillColor=#cdeb8b;strokeColor=#36393d;" vertex="1" parent="1">
          <mxGeometry x="369" y="700" width="60" height="80" as="geometry" />
        </mxCell>
        <mxCell id="-TYBonca-6Soey4SpJ7R-2" value="DB shard2" style="shape=cylinder3;whiteSpace=wrap;html=1;boundedLbl=1;backgroundOutline=1;size=15;rounded=0;sketch=0;fillColor=#cdeb8b;strokeColor=#36393d;" vertex="1" parent="1">
          <mxGeometry x="514" y="700" width="60" height="80" as="geometry" />
        </mxCell>
        <mxCell id="-TYBonca-6Soey4SpJ7R-3" value="DB shard N" style="shape=cylinder3;whiteSpace=wrap;html=1;boundedLbl=1;backgroundOutline=1;size=15;rounded=0;sketch=0;fillColor=#cdeb8b;strokeColor=#36393d;" vertex="1" parent="1">
          <mxGeometry x="668" y="700" width="60" height="80" as="geometry" />
        </mxCell>
        <mxCell id="-TYBonca-6Soey4SpJ7R-5" value="" style="endArrow=none;html=1;rounded=1;sketch=0;fontSize=19;fontColor=#1D3557;strokeColor=#999999;fillColor=#A8DADC;curved=0;dashed=1;strokeWidth=2;" edge="1" parent="1">
          <mxGeometry width="50" height="50" relative="1" as="geometry">
            <mxPoint x="170" y="589.31" as="sourcePoint" />
            <mxPoint x="1090" y="589.31" as="targetPoint" />
          </mxGeometry>
        </mxCell>
        <mxCell id="-TYBonca-6Soey4SpJ7R-6" value="storage layer" style="text;html=1;strokeColor=none;fillColor=none;align=center;verticalAlign=middle;whiteSpace=wrap;rounded=0;sketch=0;fontColor=#1D3557;fontStyle=0;fontSize=16;" vertex="1" parent="1">
          <mxGeometry x="150" y="590" width="130" height="30" as="geometry" />
        </mxCell>
        <mxCell id="-TYBonca-6Soey4SpJ7R-7" value="" style="endArrow=none;html=1;rounded=1;sketch=0;fontSize=19;fontColor=#1D3557;strokeColor=#999999;fillColor=#A8DADC;curved=0;dashed=1;strokeWidth=2;" edge="1" parent="1">
          <mxGeometry width="50" height="50" relative="1" as="geometry">
            <mxPoint x="470" y="380" as="sourcePoint" />
            <mxPoint x="1090" y="380" as="targetPoint" />
          </mxGeometry>
        </mxCell>
        <mxCell id="-TYBonca-6Soey4SpJ7R-8" value="game logic layer" style="text;html=1;strokeColor=none;fillColor=none;align=center;verticalAlign=middle;whiteSpace=wrap;rounded=0;sketch=0;fontColor=#1D3557;fontStyle=0;fontSize=16;" vertex="1" parent="1">
          <mxGeometry x="471" y="380" width="130" height="30" as="geometry" />
        </mxCell>
        <mxCell id="-TYBonca-6Soey4SpJ7R-9" value="access layer" style="text;html=1;strokeColor=none;fillColor=none;align=center;verticalAlign=middle;whiteSpace=wrap;rounded=0;sketch=0;fontColor=#1D3557;fontStyle=0;fontSize=16;" vertex="1" parent="1">
          <mxGeometry x="465" y="119" width="130" height="30" as="geometry" />
        </mxCell>
        <mxCell id="-TYBonca-6Soey4SpJ7R-10" value="common service" style="text;html=1;strokeColor=none;fillColor=none;align=center;verticalAlign=middle;whiteSpace=wrap;rounded=0;sketch=0;fontColor=#1D3557;fontStyle=0;fontSize=16;" vertex="1" parent="1">
          <mxGeometry x="160" y="123" width="130" height="30" as="geometry" />
        </mxCell>
        <mxCell id="-TYBonca-6Soey4SpJ7R-11" value="cluster agent 1" style="rounded=0;whiteSpace=wrap;html=1;fillColor=#fad7ac;strokeColor=#000000;" vertex="1" parent="1">
          <mxGeometry x="520" y="320" width="110" height="40" as="geometry" />
        </mxCell>
        <mxCell id="-TYBonca-6Soey4SpJ7R-12" value="cluster agent M" style="rounded=0;whiteSpace=wrap;html=1;fillColor=#fad7ac;strokeColor=#000000;" vertex="1" parent="1">
          <mxGeometry x="940" y="320" width="110" height="40" as="geometry" />
        </mxCell>
        <mxCell id="-TYBonca-6Soey4SpJ7R-13" value="" style="endArrow=none;html=1;rounded=0;entryX=0.5;entryY=1;entryDx=0;entryDy=0;exitX=0.75;exitY=0;exitDx=0;exitDy=0;labelBackgroundColor=#F1FAEE;strokeColor=#000000;fontColor=#1D3557;" edge="1" parent="1" source="-TYBonca-6Soey4SpJ7R-11" target="H3pQz2BiMfsaK5SPxWY5-5">
          <mxGeometry width="50" height="50" relative="1" as="geometry">
            <mxPoint x="697.5" y="330" as="sourcePoint" />
            <mxPoint x="637.5" y="290" as="targetPoint" />
          </mxGeometry>
        </mxCell>
        <mxCell id="-TYBonca-6Soey4SpJ7R-14" value="" style="endArrow=none;html=1;rounded=0;entryX=0.5;entryY=1;entryDx=0;entryDy=0;labelBackgroundColor=#F1FAEE;strokeColor=#000000;fontColor=#1D3557;" edge="1" parent="1" target="H3pQz2BiMfsaK5SPxWY5-4">
          <mxGeometry width="50" height="50" relative="1" as="geometry">
            <mxPoint x="575" y="320" as="sourcePoint" />
            <mxPoint x="907.5" y="280" as="targetPoint" />
          </mxGeometry>
        </mxCell>
        <mxCell id="-TYBonca-6Soey4SpJ7R-15" value="" style="endArrow=none;html=1;rounded=0;labelBackgroundColor=#F1FAEE;strokeColor=#000000;fontColor=#1D3557;entryX=0.5;entryY=1;entryDx=0;entryDy=0;exitX=0.25;exitY=0;exitDx=0;exitDy=0;" edge="1" parent="1" source="-TYBonca-6Soey4SpJ7R-11" target="H3pQz2BiMfsaK5SPxWY5-3">
          <mxGeometry width="50" height="50" relative="1" as="geometry">
            <mxPoint x="585.0000000000002" y="330" as="sourcePoint" />
            <mxPoint x="640" y="290" as="targetPoint" />
          </mxGeometry>
        </mxCell>
        <mxCell id="-TYBonca-6Soey4SpJ7R-16" value="" style="endArrow=none;html=1;rounded=0;labelBackgroundColor=#F1FAEE;strokeColor=#000000;fontColor=#1D3557;entryX=0.75;entryY=0;entryDx=0;entryDy=0;exitX=0.5;exitY=1;exitDx=0;exitDy=0;" edge="1" parent="1" source="H3pQz2BiMfsaK5SPxWY5-5" target="-TYBonca-6Soey4SpJ7R-12">
          <mxGeometry width="50" height="50" relative="1" as="geometry">
            <mxPoint x="960.0000000000002" y="310" as="sourcePoint" />
            <mxPoint x="1067.5" y="270" as="targetPoint" />
          </mxGeometry>
        </mxCell>
        <mxCell id="-TYBonca-6Soey4SpJ7R-19" value="" style="endArrow=none;html=1;rounded=0;labelBackgroundColor=#F1FAEE;strokeColor=#000000;fontColor=#1D3557;" edge="1" parent="1">
          <mxGeometry width="50" height="50" relative="1" as="geometry">
            <mxPoint x="790" y="280" as="sourcePoint" />
            <mxPoint x="990" y="320" as="targetPoint" />
          </mxGeometry>
        </mxCell>
        <mxCell id="-TYBonca-6Soey4SpJ7R-20" value="" style="endArrow=none;html=1;rounded=0;labelBackgroundColor=#F1FAEE;strokeColor=#000000;fontColor=#1D3557;entryX=0.25;entryY=0;entryDx=0;entryDy=0;exitX=0.5;exitY=1;exitDx=0;exitDy=0;" edge="1" parent="1" source="H3pQz2BiMfsaK5SPxWY5-3" target="-TYBonca-6Soey4SpJ7R-12">
          <mxGeometry width="50" height="50" relative="1" as="geometry">
            <mxPoint x="800" y="290" as="sourcePoint" />
            <mxPoint x="1000" y="330" as="targetPoint" />
          </mxGeometry>
        </mxCell>
        <mxCell id="-TYBonca-6Soey4SpJ7R-23" value="DB proxy2" style="rounded=0;whiteSpace=wrap;html=1;fillColor=#cdeb8b;strokeColor=#36393d;" vertex="1" parent="1">
          <mxGeometry x="504" y="630" width="80" height="40" as="geometry" />
        </mxCell>
        <mxCell id="-TYBonca-6Soey4SpJ7R-24" value="DB proxy M" style="rounded=0;whiteSpace=wrap;html=1;fillColor=#cdeb8b;strokeColor=#36393d;" vertex="1" parent="1">
          <mxGeometry x="655.5" y="630" width="85" height="40" as="geometry" />
        </mxCell>
        <mxCell id="-TYBonca-6Soey4SpJ7R-26" value="DB proxy1" style="rounded=0;whiteSpace=wrap;html=1;fillColor=#cdeb8b;strokeColor=#36393d;" vertex="1" parent="1">
          <mxGeometry x="359" y="630" width="80" height="40" as="geometry" />
        </mxCell>
        <mxCell id="-TYBonca-6Soey4SpJ7R-28" value="" style="endArrow=none;html=1;rounded=0;exitX=0.5;exitY=0;exitDx=0;exitDy=0;labelBackgroundColor=#F1FAEE;fontColor=#1D3557;exitPerimeter=0;entryX=0.5;entryY=1;entryDx=0;entryDy=0;fillColor=#cdeb8b;strokeColor=#36393d;" edge="1" parent="1" source="-TYBonca-6Soey4SpJ7R-2" target="-TYBonca-6Soey4SpJ7R-26">
          <mxGeometry width="50" height="50" relative="1" as="geometry">
            <mxPoint x="439" y="710" as="sourcePoint" />
            <mxPoint x="406.5" y="670" as="targetPoint" />
          </mxGeometry>
        </mxCell>
        <mxCell id="-TYBonca-6Soey4SpJ7R-29" value="" style="endArrow=none;html=1;rounded=0;labelBackgroundColor=#F1FAEE;fontColor=#1D3557;fillColor=#cdeb8b;strokeColor=#36393d;" edge="1" parent="1" source="-TYBonca-6Soey4SpJ7R-1">
          <mxGeometry width="50" height="50" relative="1" as="geometry">
            <mxPoint x="513.9000000000001" y="709.76" as="sourcePoint" />
            <mxPoint x="399" y="670" as="targetPoint" />
          </mxGeometry>
        </mxCell>
        <mxCell id="-TYBonca-6Soey4SpJ7R-30" value="" style="endArrow=none;html=1;rounded=0;labelBackgroundColor=#F1FAEE;fontColor=#1D3557;exitX=0.5;exitY=0;exitDx=0;exitDy=0;exitPerimeter=0;fillColor=#cdeb8b;strokeColor=#36393d;" edge="1" parent="1" source="-TYBonca-6Soey4SpJ7R-1">
          <mxGeometry width="50" height="50" relative="1" as="geometry">
            <mxPoint x="409.0000000000002" y="709.9999999999998" as="sourcePoint" />
            <mxPoint x="539" y="670" as="targetPoint" />
          </mxGeometry>
        </mxCell>
        <mxCell id="-TYBonca-6Soey4SpJ7R-31" value="" style="endArrow=none;html=1;rounded=0;labelBackgroundColor=#F1FAEE;fontColor=#1D3557;entryX=0.5;entryY=1;entryDx=0;entryDy=0;exitX=0.582;exitY=0.006;exitDx=0;exitDy=0;exitPerimeter=0;fillColor=#cdeb8b;strokeColor=#36393d;" edge="1" parent="1" source="-TYBonca-6Soey4SpJ7R-1" target="-TYBonca-6Soey4SpJ7R-24">
          <mxGeometry width="50" height="50" relative="1" as="geometry">
            <mxPoint x="409.0000000000002" y="709.9999999999998" as="sourcePoint" />
            <mxPoint x="514.6000000000001" y="679.4399999999998" as="targetPoint" />
          </mxGeometry>
        </mxCell>
        <mxCell id="-TYBonca-6Soey4SpJ7R-32" value="" style="endArrow=none;html=1;rounded=0;exitX=0.5;exitY=0;exitDx=0;exitDy=0;labelBackgroundColor=#F1FAEE;fontColor=#1D3557;exitPerimeter=0;entryX=0.5;entryY=1;entryDx=0;entryDy=0;fillColor=#cdeb8b;strokeColor=#36393d;" edge="1" parent="1" source="-TYBonca-6Soey4SpJ7R-3" target="-TYBonca-6Soey4SpJ7R-26">
          <mxGeometry width="50" height="50" relative="1" as="geometry">
            <mxPoint x="513.9000000000001" y="709.76" as="sourcePoint" />
            <mxPoint x="409.0000000000002" y="680.0000000000002" as="targetPoint" />
          </mxGeometry>
        </mxCell>
        <mxCell id="-TYBonca-6Soey4SpJ7R-33" value="" style="endArrow=none;html=1;rounded=0;labelBackgroundColor=#F1FAEE;fontColor=#1D3557;entryX=0.5;entryY=1;entryDx=0;entryDy=0;fillColor=#cdeb8b;strokeColor=#36393d;" edge="1" parent="1" target="-TYBonca-6Soey4SpJ7R-23">
          <mxGeometry width="50" height="50" relative="1" as="geometry">
            <mxPoint x="544" y="700" as="sourcePoint" />
            <mxPoint x="444.0000000000002" y="679.9999999999998" as="targetPoint" />
          </mxGeometry>
        </mxCell>
        <mxCell id="-TYBonca-6Soey4SpJ7R-34" value="" style="endArrow=none;html=1;rounded=0;labelBackgroundColor=#F1FAEE;fontColor=#1D3557;entryX=0.5;entryY=1;entryDx=0;entryDy=0;fillColor=#cdeb8b;strokeColor=#36393d;" edge="1" parent="1" source="-TYBonca-6Soey4SpJ7R-3" target="-TYBonca-6Soey4SpJ7R-24">
          <mxGeometry width="50" height="50" relative="1" as="geometry">
            <mxPoint x="578.0000000000002" y="709.9999999999998" as="sourcePoint" />
            <mxPoint x="578.0000000000002" y="680.0000000000002" as="targetPoint" />
          </mxGeometry>
        </mxCell>
        <mxCell id="-TYBonca-6Soey4SpJ7R-35" value="" style="endArrow=none;html=1;rounded=0;labelBackgroundColor=#F1FAEE;fontColor=#1D3557;entryX=0.5;entryY=1;entryDx=0;entryDy=0;exitX=0.5;exitY=0;exitDx=0;exitDy=0;exitPerimeter=0;fillColor=#cdeb8b;strokeColor=#36393d;" edge="1" parent="1" source="-TYBonca-6Soey4SpJ7R-3" target="-TYBonca-6Soey4SpJ7R-23">
          <mxGeometry width="50" height="50" relative="1" as="geometry">
            <mxPoint x="684.0000000000002" y="709.9999999999998" as="sourcePoint" />
            <mxPoint x="684.0000000000002" y="680.0000000000002" as="targetPoint" />
          </mxGeometry>
        </mxCell>
        <mxCell id="-TYBonca-6Soey4SpJ7R-36" value="" style="endArrow=none;html=1;rounded=0;labelBackgroundColor=#F1FAEE;fontColor=#1D3557;entryX=0.5;entryY=1;entryDx=0;entryDy=0;exitX=0.5;exitY=0;exitDx=0;exitDy=0;exitPerimeter=0;fillColor=#cdeb8b;strokeColor=#36393d;" edge="1" parent="1" source="-TYBonca-6Soey4SpJ7R-2" target="-TYBonca-6Soey4SpJ7R-24">
          <mxGeometry width="50" height="50" relative="1" as="geometry">
            <mxPoint x="448.9200000000001" y="710.4799999999998" as="sourcePoint" />
            <mxPoint x="684.0000000000002" y="680.0000000000002" as="targetPoint" />
          </mxGeometry>
        </mxCell>
        <mxCell id="-TYBonca-6Soey4SpJ7R-37" value="zone2" style="rounded=0;whiteSpace=wrap;html=1;sketch=0;fontSize=16;strokeColor=#000000;fillColor=#cce5ff;dashed=1;align=left;" vertex="1" parent="1">
          <mxGeometry x="840" y="420" width="90" height="140" as="geometry" />
        </mxCell>
        <mxCell id="-TYBonca-6Soey4SpJ7R-38" value="zoneN" style="rounded=0;whiteSpace=wrap;html=1;sketch=0;fontSize=16;strokeColor=#000000;fillColor=#cce5ff;dashed=1;align=left;" vertex="1" parent="1">
          <mxGeometry x="973" y="420" width="90" height="140" as="geometry" />
        </mxCell>
        <mxCell id="-TYBonca-6Soey4SpJ7R-54" value="" style="shape=doubleArrow;direction=south;whiteSpace=wrap;html=1;rounded=0;sketch=0;fontSize=16;align=left;fillColor=#FF9999;" vertex="1" parent="1">
          <mxGeometry x="782" y="185" width="20" height="50" as="geometry" />
        </mxCell>
        <mxCell id="-TYBonca-6Soey4SpJ7R-55" value="" style="shape=doubleArrow;direction=south;whiteSpace=wrap;html=1;rounded=0;sketch=0;fontSize=16;align=left;fillColor=#FF9999;" vertex="1" parent="1">
          <mxGeometry x="810" y="566" width="20" height="50" as="geometry" />
        </mxCell>
        <mxCell id="-TYBonca-6Soey4SpJ7R-57" value="" style="shape=doubleArrow;direction=south;whiteSpace=wrap;html=1;rounded=0;sketch=0;fontSize=16;align=left;fillColor=#FF9999;" vertex="1" parent="1">
          <mxGeometry x="300" y="566" width="20" height="50" as="geometry" />
        </mxCell>
        <mxCell id="-TYBonca-6Soey4SpJ7R-59" value="gcloud" style="rounded=0;whiteSpace=wrap;html=1;fillColor=#fad7ac;strokeColor=#000000;" vertex="1" parent="1">
          <mxGeometry x="344" y="170" width="110" height="40" as="geometry" />
        </mxCell>
        <mxCell id="-TYBonca-6Soey4SpJ7R-76" value="" style="group" vertex="1" connectable="0" parent="1">
          <mxGeometry x="160" y="230" width="140" height="90" as="geometry" />
        </mxCell>
        <mxCell id="-TYBonca-6Soey4SpJ7R-77" value="" style="rounded=0;whiteSpace=wrap;html=1;sketch=0;fontSize=16;strokeColor=#000000;fillColor=#cce5ff;dashed=1;align=left;" vertex="1" parent="-TYBonca-6Soey4SpJ7R-76">
          <mxGeometry width="140" height="90" as="geometry" />
        </mxCell>
        <mxCell id="-TYBonca-6Soey4SpJ7R-78" value="cluster" style="text;html=1;strokeColor=none;fillColor=none;align=center;verticalAlign=middle;whiteSpace=wrap;rounded=0;sketch=0;fontColor=#1D3557;fontStyle=0;fontSize=16;" vertex="1" parent="-TYBonca-6Soey4SpJ7R-76">
          <mxGeometry width="65.33333333333333" height="24.923076923076923" as="geometry" />
        </mxCell>
        <mxCell id="-TYBonca-6Soey4SpJ7R-79" value="chat&amp;nbsp;" style="rounded=0;whiteSpace=wrap;html=1;fillColor=#fad7ac;strokeColor=#000000;" vertex="1" parent="-TYBonca-6Soey4SpJ7R-76">
          <mxGeometry x="9.333333333333334" y="29.076923076923038" width="102.66666666666667" height="33.23076923076923" as="geometry" />
        </mxCell>
        <mxCell id="-TYBonca-6Soey4SpJ7R-80" value="chat&amp;nbsp;" style="rounded=0;whiteSpace=wrap;html=1;fillColor=#fad7ac;strokeColor=#000000;" vertex="1" parent="-TYBonca-6Soey4SpJ7R-76">
          <mxGeometry x="18.666666666666668" y="37.384615384615394" width="102.66666666666667" height="33.23076923076923" as="geometry" />
        </mxCell>
        <mxCell id="-TYBonca-6Soey4SpJ7R-81" value="chat" style="rounded=0;whiteSpace=wrap;html=1;fillColor=#fad7ac;strokeColor=#000000;" vertex="1" parent="-TYBonca-6Soey4SpJ7R-76">
          <mxGeometry x="28" y="45.69230769230775" width="102.66666666666667" height="33.23076923076923" as="geometry" />
        </mxCell>
        <mxCell id="-TYBonca-6Soey4SpJ7R-82" value="" style="group" vertex="1" connectable="0" parent="1">
          <mxGeometry x="160" y="340" width="140" height="90" as="geometry" />
        </mxCell>
        <mxCell id="-TYBonca-6Soey4SpJ7R-83" value="" style="rounded=0;whiteSpace=wrap;html=1;sketch=0;fontSize=16;strokeColor=#000000;fillColor=#cce5ff;dashed=1;align=left;" vertex="1" parent="-TYBonca-6Soey4SpJ7R-82">
          <mxGeometry width="140" height="90" as="geometry" />
        </mxCell>
        <mxCell id="-TYBonca-6Soey4SpJ7R-84" value="cluster" style="text;html=1;strokeColor=none;fillColor=none;align=center;verticalAlign=middle;whiteSpace=wrap;rounded=0;sketch=0;fontColor=#1D3557;fontStyle=0;fontSize=16;" vertex="1" parent="-TYBonca-6Soey4SpJ7R-82">
          <mxGeometry width="65.33333333333333" height="24.923076923076923" as="geometry" />
        </mxCell>
        <mxCell id="-TYBonca-6Soey4SpJ7R-85" value="chat&amp;nbsp;" style="rounded=0;whiteSpace=wrap;html=1;fillColor=#fad7ac;strokeColor=#000000;" vertex="1" parent="-TYBonca-6Soey4SpJ7R-82">
          <mxGeometry x="9.333333333333334" y="29.076923076923038" width="102.66666666666667" height="33.23076923076923" as="geometry" />
        </mxCell>
        <mxCell id="-TYBonca-6Soey4SpJ7R-86" value="chat&amp;nbsp;" style="rounded=0;whiteSpace=wrap;html=1;fillColor=#fad7ac;strokeColor=#000000;" vertex="1" parent="-TYBonca-6Soey4SpJ7R-82">
          <mxGeometry x="18.666666666666668" y="37.384615384615394" width="102.66666666666667" height="33.23076923076923" as="geometry" />
        </mxCell>
        <mxCell id="-TYBonca-6Soey4SpJ7R-87" value="rank" style="rounded=0;whiteSpace=wrap;html=1;fillColor=#fad7ac;strokeColor=#000000;" vertex="1" parent="-TYBonca-6Soey4SpJ7R-82">
          <mxGeometry x="28" y="45.69230769230775" width="102.66666666666667" height="33.23076923076923" as="geometry" />
        </mxCell>
        <mxCell id="-TYBonca-6Soey4SpJ7R-88" value="" style="group" vertex="1" connectable="0" parent="1">
          <mxGeometry x="160" y="460" width="140" height="90" as="geometry" />
        </mxCell>
        <mxCell id="-TYBonca-6Soey4SpJ7R-89" value="" style="rounded=0;whiteSpace=wrap;html=1;sketch=0;fontSize=16;strokeColor=#000000;fillColor=#cce5ff;dashed=1;align=left;" vertex="1" parent="-TYBonca-6Soey4SpJ7R-88">
          <mxGeometry width="140" height="90" as="geometry" />
        </mxCell>
        <mxCell id="-TYBonca-6Soey4SpJ7R-90" value="cluster" style="text;html=1;strokeColor=none;fillColor=none;align=center;verticalAlign=middle;whiteSpace=wrap;rounded=0;sketch=0;fontColor=#1D3557;fontStyle=0;fontSize=16;" vertex="1" parent="-TYBonca-6Soey4SpJ7R-88">
          <mxGeometry width="65.33333333333333" height="24.923076923076923" as="geometry" />
        </mxCell>
        <mxCell id="-TYBonca-6Soey4SpJ7R-91" value="chat&amp;nbsp;" style="rounded=0;whiteSpace=wrap;html=1;fillColor=#fad7ac;strokeColor=#000000;" vertex="1" parent="-TYBonca-6Soey4SpJ7R-88">
          <mxGeometry x="9.333333333333334" y="29.076923076923038" width="102.66666666666667" height="33.23076923076923" as="geometry" />
        </mxCell>
        <mxCell id="-TYBonca-6Soey4SpJ7R-92" value="chat&amp;nbsp;" style="rounded=0;whiteSpace=wrap;html=1;fillColor=#fad7ac;strokeColor=#000000;" vertex="1" parent="-TYBonca-6Soey4SpJ7R-88">
          <mxGeometry x="18.666666666666668" y="37.384615384615394" width="102.66666666666667" height="33.23076923076923" as="geometry" />
        </mxCell>
        <mxCell id="-TYBonca-6Soey4SpJ7R-93" value="mail" style="rounded=0;whiteSpace=wrap;html=1;fillColor=#fad7ac;strokeColor=#000000;" vertex="1" parent="-TYBonca-6Soey4SpJ7R-88">
          <mxGeometry x="28" y="45.69230769230775" width="102.66666666666667" height="33.23076923076923" as="geometry" />
        </mxCell>
        <mxCell id="-TYBonca-6Soey4SpJ7R-94" value="" style="shape=doubleArrow;direction=south;whiteSpace=wrap;html=1;rounded=0;sketch=0;fontSize=16;align=left;fillColor=#FF9999;rotation=45;" vertex="1" parent="1">
          <mxGeometry x="330" y="430" width="29" height="84.65" as="geometry" />
        </mxCell>
        <mxCell id="-TYBonca-6Soey4SpJ7R-95" value="" style="shape=doubleArrow;direction=south;whiteSpace=wrap;html=1;rounded=0;sketch=0;fontSize=16;align=left;fillColor=#FF9999;rotation=75;" vertex="1" parent="1">
          <mxGeometry x="321.77" y="360" width="24" height="50" as="geometry" />
        </mxCell>
        <mxCell id="-TYBonca-6Soey4SpJ7R-96" value="" style="shape=doubleArrow;direction=south;whiteSpace=wrap;html=1;rounded=0;sketch=0;fontSize=16;align=left;fillColor=#FF9999;rotation=140;" vertex="1" parent="1">
          <mxGeometry x="331.87" y="270.9" width="23.35" height="70.41" as="geometry" />
        </mxCell>
        <mxCell id="-TYBonca-6Soey4SpJ7R-105" value="" style="group" vertex="1" connectable="0" parent="1">
          <mxGeometry x="360" y="304" width="131" height="123.47000000000003" as="geometry" />
        </mxCell>
        <mxCell id="-TYBonca-6Soey4SpJ7R-58" value="" style="ellipse;shape=doubleEllipse;whiteSpace=wrap;html=1;aspect=fixed;rounded=0;sketch=0;fontSize=16;fontColor=#ffffff;strokeColor=#000000;fillColor=#76608a;align=left;" vertex="1" parent="-TYBonca-6Soey4SpJ7R-105">
          <mxGeometry x="25" y="24.470000000000027" width="80" height="80" as="geometry" />
        </mxCell>
        <mxCell id="-TYBonca-6Soey4SpJ7R-98" value="" style="ellipse;whiteSpace=wrap;html=1;aspect=fixed;rounded=0;sketch=0;fontSize=16;fontColor=#1D3557;strokeColor=#000000;fillColor=#FF9999;align=left;" vertex="1" parent="-TYBonca-6Soey4SpJ7R-105">
          <mxGeometry x="44" width="40" height="40" as="geometry" />
        </mxCell>
        <mxCell id="-TYBonca-6Soey4SpJ7R-100" value="" style="ellipse;whiteSpace=wrap;html=1;aspect=fixed;rounded=0;sketch=0;fontSize=16;fontColor=#1D3557;strokeColor=#000000;fillColor=#FF9999;align=left;" vertex="1" parent="-TYBonca-6Soey4SpJ7R-105">
          <mxGeometry x="91" y="34.47000000000003" width="40" height="40" as="geometry" />
        </mxCell>
        <mxCell id="-TYBonca-6Soey4SpJ7R-101" value="" style="ellipse;whiteSpace=wrap;html=1;aspect=fixed;rounded=0;sketch=0;fontSize=16;fontColor=#1D3557;strokeColor=#000000;fillColor=#FF9999;align=left;" vertex="1" parent="-TYBonca-6Soey4SpJ7R-105">
          <mxGeometry y="35.47000000000003" width="40" height="40" as="geometry" />
        </mxCell>
        <mxCell id="-TYBonca-6Soey4SpJ7R-102" value="" style="ellipse;whiteSpace=wrap;html=1;aspect=fixed;rounded=0;sketch=0;fontSize=16;fontColor=#1D3557;strokeColor=#000000;fillColor=#FF9999;align=left;" vertex="1" parent="-TYBonca-6Soey4SpJ7R-105">
          <mxGeometry x="74" y="83.47000000000003" width="40" height="40" as="geometry" />
        </mxCell>
        <mxCell id="-TYBonca-6Soey4SpJ7R-103" value="" style="ellipse;whiteSpace=wrap;html=1;aspect=fixed;rounded=0;sketch=0;fontSize=16;fontColor=#1D3557;strokeColor=#000000;fillColor=#FF9999;align=left;" vertex="1" parent="-TYBonca-6Soey4SpJ7R-105">
          <mxGeometry x="17" y="83.47000000000003" width="40" height="40" as="geometry" />
        </mxCell>
        <mxCell id="-TYBonca-6Soey4SpJ7R-104" value="router&lt;br&gt;cluster" style="text;html=1;strokeColor=none;fillColor=none;align=center;verticalAlign=middle;whiteSpace=wrap;rounded=0;sketch=0;fontColor=#1D3557;fontStyle=0;fontSize=16;" vertex="1" parent="-TYBonca-6Soey4SpJ7R-105">
          <mxGeometry x="25" y="29.470000000000027" width="78" height="70" as="geometry" />
        </mxCell>
        <mxCell id="-TYBonca-6Soey4SpJ7R-106" value="" style="endArrow=none;html=1;rounded=0;labelBackgroundColor=#F1FAEE;strokeColor=#000000;fontColor=#1D3557;entryX=0.5;entryY=1;entryDx=0;entryDy=0;exitX=0.5;exitY=0;exitDx=0;exitDy=0;" edge="1" parent="1" source="H3pQz2BiMfsaK5SPxWY5-22" target="H3pQz2BiMfsaK5SPxWY5-9">
          <mxGeometry width="50" height="50" relative="1" as="geometry">
            <mxPoint x="560" y="510" as="sourcePoint" />
            <mxPoint x="660" y="470" as="targetPoint" />
          </mxGeometry>
        </mxCell>
        <mxCell id="-TYBonca-6Soey4SpJ7R-107" value="" style="endArrow=none;html=1;rounded=0;labelBackgroundColor=#F1FAEE;strokeColor=#000000;fontColor=#1D3557;" edge="1" parent="1" source="H3pQz2BiMfsaK5SPxWY5-21">
          <mxGeometry width="50" height="50" relative="1" as="geometry">
            <mxPoint x="570.0000000000002" y="516" as="sourcePoint" />
            <mxPoint x="650" y="480" as="targetPoint" />
          </mxGeometry>
        </mxCell>
        <mxCell id="-TYBonca-6Soey4SpJ7R-108" value="" style="endArrow=none;html=1;rounded=0;labelBackgroundColor=#F1FAEE;strokeColor=#000000;fontColor=#1D3557;exitX=0.5;exitY=0;exitDx=0;exitDy=0;" edge="1" parent="1" source="H3pQz2BiMfsaK5SPxWY5-23">
          <mxGeometry width="50" height="50" relative="1" as="geometry">
            <mxPoint x="660" y="516" as="sourcePoint" />
            <mxPoint x="650" y="480" as="targetPoint" />
          </mxGeometry>
        </mxCell>
        <mxCell id="-TYBonca-6Soey4SpJ7R-111" value="" style="shape=doubleArrow;direction=south;whiteSpace=wrap;html=1;rounded=0;sketch=0;fontSize=16;align=left;fillColor=#FF9999;rotation=-210;" vertex="1" parent="1">
          <mxGeometry x="460.55" y="433.94" width="29" height="68.65" as="geometry" />
        </mxCell>
      </root>
    </mxGraphModel>
  </diagram>
  <diagram id="tr6Cm_fnw_d3farfgj_Y" name="Page-2">
    <mxGraphModel dx="2062" dy="1122" grid="1" gridSize="10" guides="1" tooltips="1" connect="1" arrows="1" fold="1" page="1" pageScale="1" pageWidth="1654" pageHeight="1169" math="0" shadow="0">
      <root>
        <mxCell id="BptxMjRW79i1g737dbED-0" />
        <mxCell id="BptxMjRW79i1g737dbED-1" parent="BptxMjRW79i1g737dbED-0" />
      </root>
    </mxGraphModel>
  </diagram>
</mxfile>
